<svg width="197" height="120" viewBox="0 0 197 120" fill="none" xmlns="http://www.w3.org/2000/svg">
<path d="M0.5 0H196.5V120H0.5V0Z" fill="black"/>
<path d="M65.2838 86.6172L61 39H107L102.818 86.6172L84.051 92" fill="#264DE4"/>
<path d="M85 43V88L99.5761 83.7586L103 43" fill="#2965F1"/>
<path d="M69 49H85V54.775H69.5634M70.1268 60.7562H85V66.6344H70.6901M71.0282 69.5219H77.338L77.7887 74.1625L85 75.9156V82L71.8169 78.7" fill="#EBEBEB"/>
<path d="M85 60.7562V66.6344H91.8511L91.156 74.1625L85 75.9156V82L96.4184 78.7L99 49H85V54.775H92.9433L92.3972 60.7562H85Z" fill="white"/>
<path d="M109.56 80.1598C108.743 80.1598 108.042 79.9805 107.456 79.6218C106.873 79.2631 106.424 78.7678 106.108 78.1357C105.795 77.5 105.639 76.7685 105.639 75.9411C105.639 75.1101 105.799 74.3768 106.119 73.7411C106.438 73.1019 106.889 72.6048 107.472 72.2496C108.058 71.891 108.75 71.7116 109.549 71.7116C110.213 71.7116 110.801 71.8342 111.312 72.0792C111.827 72.3207 112.237 72.6634 112.543 73.1072C112.848 73.5476 113.022 74.0625 113.065 74.652H111.222C111.147 74.2578 110.969 73.9293 110.689 73.6665C110.412 73.4002 110.041 73.267 109.576 73.267C109.181 73.267 108.835 73.3736 108.537 73.5866C108.239 73.7962 108.006 74.098 107.839 74.4922C107.676 74.8864 107.594 75.3587 107.594 75.9091C107.594 76.4666 107.676 76.946 107.839 77.3473C108.002 77.745 108.232 78.0522 108.526 78.2688C108.825 78.4819 109.174 78.5884 109.576 78.5884C109.86 78.5884 110.114 78.5352 110.337 78.4286C110.565 78.3185 110.755 78.1605 110.907 77.9545C111.06 77.7486 111.165 77.4982 111.222 77.2035H113.065C113.018 77.7823 112.848 78.2955 112.553 78.7429C112.259 79.1868 111.857 79.5348 111.349 79.7869C110.842 80.0355 110.245 80.1598 109.56 80.1598ZM121.115 73.9808L119.357 74.1726C119.307 73.995 119.22 73.8281 119.096 73.6719C118.975 73.5156 118.812 73.3896 118.606 73.2937C118.4 73.1978 118.148 73.1499 117.849 73.1499C117.448 73.1499 117.111 73.2369 116.837 73.4109C116.567 73.5849 116.434 73.8104 116.438 74.0874C116.434 74.3253 116.521 74.5188 116.699 74.668C116.88 74.8171 117.178 74.9396 117.594 75.0355L118.989 75.3338C119.763 75.5007 120.339 75.7653 120.715 76.1275C121.095 76.4897 121.287 76.9638 121.29 77.5497C121.287 78.0646 121.136 78.5192 120.838 78.9134C120.543 79.304 120.133 79.6094 119.607 79.8295C119.082 80.0497 118.478 80.1598 117.796 80.1598C116.795 80.1598 115.989 79.9503 115.378 79.5312C114.767 79.1087 114.403 78.521 114.286 77.7681L116.166 77.587C116.251 77.9563 116.432 78.2351 116.709 78.4233C116.986 78.6115 117.347 78.7056 117.791 78.7056C118.249 78.7056 118.616 78.6115 118.893 78.4233C119.174 78.2351 119.314 78.0025 119.314 77.7255C119.314 77.4911 119.224 77.2976 119.043 77.1449C118.865 76.9922 118.588 76.875 118.212 76.7933L116.816 76.5004C116.031 76.337 115.451 76.0618 115.074 75.6747C114.698 75.2841 114.511 74.7905 114.515 74.1939C114.511 73.6896 114.648 73.2528 114.925 72.8835C115.206 72.5107 115.594 72.223 116.092 72.0206C116.592 71.8146 117.169 71.7116 117.823 71.7116C118.782 71.7116 119.536 71.9158 120.087 72.3242C120.641 72.7326 120.983 73.2848 121.115 73.9808ZM129.347 73.9808L127.589 74.1726C127.54 73.995 127.453 73.8281 127.328 73.6719C127.207 73.5156 127.044 73.3896 126.838 73.2937C126.632 73.1978 126.38 73.1499 126.082 73.1499C125.68 73.1499 125.343 73.2369 125.07 73.4109C124.8 73.5849 124.667 73.8104 124.67 74.0874C124.667 74.3253 124.754 74.5188 124.931 74.668C125.112 74.8171 125.411 74.9396 125.826 75.0355L127.222 75.3338C127.996 75.5007 128.571 75.7653 128.948 76.1275C129.328 76.4897 129.519 76.9638 129.523 77.5497C129.519 78.0646 129.368 78.5192 129.07 78.9134C128.775 79.304 128.365 79.6094 127.84 79.8295C127.314 80.0497 126.71 80.1598 126.028 80.1598C125.027 80.1598 124.221 79.9503 123.61 79.5312C122.999 79.1087 122.635 78.521 122.518 77.7681L124.399 77.587C124.484 77.9563 124.665 78.2351 124.942 78.4233C125.219 78.6115 125.579 78.7056 126.023 78.7056C126.481 78.7056 126.849 78.6115 127.126 78.4233C127.406 78.2351 127.547 78.0025 127.547 77.7255C127.547 77.4911 127.456 77.2976 127.275 77.1449C127.097 76.9922 126.82 76.875 126.444 76.7933L125.048 76.5004C124.264 76.337 123.683 76.0618 123.307 75.6747C122.93 75.2841 122.744 74.7905 122.747 74.1939C122.744 73.6896 122.88 73.2528 123.157 72.8835C123.438 72.5107 123.827 72.223 124.324 72.0206C124.825 71.8146 125.402 71.7116 126.055 71.7116C127.014 71.7116 127.769 71.9158 128.319 72.3242C128.873 72.7326 129.216 73.2848 129.347 73.9808Z" fill="white"/>
</svg>
