<svg width="154" height="143" viewBox="0 0 154 143" fill="none" xmlns="http://www.w3.org/2000/svg">
<g clip-path="url(#clip0_223_99)" filter="url(#filter0_d_223_99)">
<path d="M142.923 99.1867L114.824 71.2821C123.69 59.9259 122.901 43.4861 112.405 33.0636C101.027 21.7652 82.5138 21.7652 71.1364 33.0636C59.759 44.3634 59.759 62.7469 71.1364 74.0467C81.6317 84.4692 98.185 85.252 109.622 76.4489L137.722 104.352C139.161 105.78 141.487 105.78 142.923 104.353C144.359 102.926 144.359 100.616 142.923 99.1867ZM107.202 68.8799C98.6935 77.3304 84.8475 77.3318 76.3379 68.8799C67.8283 60.4308 67.8283 46.6809 76.3379 38.2304C84.8461 29.7813 98.6921 29.7785 107.202 38.2304C115.711 46.6795 115.711 60.4294 107.202 68.8799Z" fill="white"/>
<path d="M7.10199 93.1961V17.4955H133.517V85.3225L140.619 92.3752V16.7903C140.619 13.2922 137.75 10.4429 134.228 10.4429H6.39179C2.86778 10.4429 0 13.2922 0 16.7903V93.9014C0 97.3995 2.86778 100.249 6.39179 100.249H57.5432V120.355C57.5432 122.782 59.5289 124.754 61.9706 124.754H75.8067C78.2483 124.754 80.2326 122.782 80.2326 120.355V100.249H130.109L123.007 93.1961H7.10199ZM61.9706 120.355V100.249H75.8067L75.8095 120.357L61.9706 120.355Z" fill="white"/>
<path d="M91.6015 115.773V120.005C91.299 120.005 91.0518 119.759 91.0518 119.459V128.327H46.7254V119.459C46.7254 119.759 46.4783 120.005 46.1757 120.005V115.773C44.1289 115.773 42.4642 117.426 42.4642 119.459V128.873C42.4642 130.905 44.1289 132.558 46.1757 132.558H91.6015C93.6483 132.558 95.313 130.905 95.313 128.873V119.459C95.3144 117.426 93.6497 115.773 91.6015 115.773Z" fill="white"/>
<path d="M54.3714 85.7598H65.246C65.6892 85.7598 66.0471 85.4043 66.0471 84.9656V71.708C63.8057 68.5103 62.2305 65.0023 61.3072 61.3533L53.5689 69.351V84.967C53.5689 85.4043 53.9283 85.7598 54.3714 85.7598Z" fill="white"/>
<path d="M84.6742 85.7598C85.1174 85.7598 85.4767 85.4043 85.4767 84.9656V84.5933C80.9457 83.6242 76.7086 81.6819 72.9985 78.8834V84.9656C72.9985 85.4057 73.3579 85.7598 73.7996 85.7598H84.6742Z" fill="white"/>
<path d="M84.6742 67.3523H79.4031C81.1928 69.0054 83.2482 70.2806 85.4768 71.1325V68.1507C85.4782 67.7092 85.1188 67.3523 84.6742 67.3523Z" fill="white"/>
<path d="M103.037 85.7598C103.48 85.7598 103.838 85.4043 103.838 84.9656V83.1757C100.171 84.5806 96.2405 85.3253 92.2733 85.3253C91.9892 85.3253 91.7108 85.2943 91.431 85.2858C91.556 85.5637 91.833 85.7598 92.1611 85.7598H103.037Z" fill="white"/>
<path d="M102.355 50.8956C101.674 50.8956 101.007 50.6558 100.485 50.2214L98.5075 48.5809L91.36 56.3234V72.3513C91.6754 72.3668 91.9864 72.395 92.306 72.395C96.5388 72.395 100.546 71.0155 103.838 68.5047V50.4852C103.794 50.512 103.753 50.5416 103.708 50.567C103.293 50.7814 102.824 50.8956 102.355 50.8956Z" fill="white"/>
<path d="M81.9527 63.2138L98.445 45.3466L102.304 48.5499C102.493 48.7051 102.757 48.7347 102.976 48.6218C103.192 48.509 103.32 48.2777 103.301 48.0336L102.463 38.7453C102.433 38.4138 102.138 38.1684 101.806 38.198L92.4523 39.0288C92.208 39.0514 92.0021 39.2164 91.9268 39.4491C91.9026 39.5267 91.8969 39.6043 91.9012 39.6833C91.9154 39.8384 91.9893 39.9879 92.1171 40.0909L95.982 43.2999L80.315 60.2728L73.8607 57.9144C74.1831 59.2685 74.6519 60.5775 75.2612 61.8216L80.2156 63.6313C80.8292 63.8542 81.5152 63.6906 81.9527 63.2138Z" fill="white"/>
<path d="M60.347 54.5122L49.7565 65.458C49.1415 66.0927 49.1628 67.1012 49.802 67.7106C50.1131 68.0082 50.5136 68.1549 50.9127 68.1549C51.3346 68.1549 51.755 67.9913 52.0689 67.6654L60.7504 58.6944C60.5232 57.3079 60.3896 55.9115 60.347 54.5122Z" fill="white"/>
</g>
<defs>
<filter id="filter0_d_223_99" x="0" y="0" width="154" height="151" filterUnits="userSpaceOnUse" color-interpolation-filters="sRGB">
<feFlood flood-opacity="0" result="BackgroundImageFix"/>
<feColorMatrix in="SourceAlpha" type="matrix" values="0 0 0 0 0 0 0 0 0 0 0 0 0 0 0 0 0 0 127 0" result="hardAlpha"/>
<feOffset dx="6" dy="4"/>
<feGaussianBlur stdDeviation="2"/>
<feComposite in2="hardAlpha" operator="out"/>
<feColorMatrix type="matrix" values="0 0 0 0 0 0 0 0 0 0 0 0 0 0 0 0 0 0 0.25 0"/>
<feBlend mode="normal" in2="BackgroundImageFix" result="effect1_dropShadow_223_99"/>
<feBlend mode="normal" in="SourceGraphic" in2="effect1_dropShadow_223_99" result="shape"/>
</filter>
<clipPath id="clip0_223_99">
<rect width="144" height="143" fill="white"/>
</clipPath>
</defs>
</svg>
