<svg width="254" height="205" viewBox="0 0 254 205" fill="none" xmlns="http://www.w3.org/2000/svg">
<rect y="23" width="249" height="163" fill="black"/>
<path fill-rule="evenodd" clip-rule="evenodd" d="M111.627 59.9319H72.6898V50.7568L8.6875 60.6353V147.223L72.6898 158.247V144.648H111.627C112.806 144.708 113.961 144.298 114.839 143.509C115.717 142.719 116.247 141.614 116.312 140.435V64.1408C116.246 62.9625 115.716 61.8585 114.838 61.0699C113.96 60.2812 112.806 59.8721 111.627 59.9319ZM112.242 141.135H72.5591L72.4938 133.874H82.0532V125.418H72.4207L72.3746 120.421H82.0532V111.965H72.3016L72.2554 106.968H82.0532V98.5116H72.2247V93.5147H82.0532V85.0585H72.2247V80.0616H82.0532V71.6053H72.2247V63.9178H112.242V141.135Z" fill="#20744A"/>
<path d="M104.051 71.5938H87.4344V80.05H104.051V71.5938Z" fill="#20744A"/>
<path d="M104.051 85.0508H87.4344V93.507H104.051V85.0508Z" fill="#20744A"/>
<path d="M104.051 98.5078H87.4344V106.964H104.051V98.5078Z" fill="#20744A"/>
<path d="M104.051 111.964H87.4344V120.421H104.051V111.964Z" fill="#20744A"/>
<path d="M104.051 125.421H87.4344V133.878H104.051V125.421Z" fill="#20744A"/>
<path fill-rule="evenodd" clip-rule="evenodd" d="M25.3963 84.0244L33.645 83.5516L38.8302 97.8081L44.9571 82.9635L53.2058 82.4907L43.189 102.732L53.2058 123.023L44.4843 122.435L38.5957 106.968L32.7032 121.847L24.689 121.14L33.9986 103.216L25.3963 84.0244Z" fill="white"/>
<path d="M119.995 120V83.6364H142.793V88.3594H125.482V99.4389H141.604V104.144H125.482V115.277H143.006V120H119.995ZM153.886 92.7273L159.905 103.345L165.978 92.7273H171.784L163.279 106.364L171.855 120H166.049L159.905 109.808L153.78 120H147.956L156.443 106.364L148.062 92.7273H153.886ZM187.649 120.55C185.009 120.55 182.736 119.953 180.83 118.757C178.936 117.55 177.481 115.887 176.463 113.768C175.445 111.649 174.936 109.222 174.936 106.488C174.936 103.718 175.456 101.274 176.498 99.1548C177.54 97.0241 179.008 95.361 180.901 94.1655C182.795 92.9699 185.027 92.3722 187.595 92.3722C189.667 92.3722 191.513 92.7569 193.135 93.5263C194.757 94.2839 196.065 95.3492 197.059 96.7223C198.065 98.0954 198.663 99.6993 198.852 101.534H193.686C193.401 100.256 192.75 99.1548 191.732 98.2315C190.726 97.3082 189.377 96.8466 187.684 96.8466C186.204 96.8466 184.908 97.2372 183.796 98.0185C182.695 98.7879 181.837 99.8887 181.221 101.321C180.606 102.741 180.298 104.422 180.298 106.364C180.298 108.352 180.6 110.069 181.203 111.513C181.807 112.957 182.659 114.076 183.76 114.869C184.873 115.662 186.181 116.058 187.684 116.058C188.69 116.058 189.602 115.875 190.419 115.508C191.247 115.129 191.94 114.59 192.496 113.892C193.064 113.194 193.461 112.353 193.686 111.371H198.852C198.663 113.134 198.089 114.709 197.13 116.094C196.171 117.479 194.887 118.568 193.277 119.361C191.679 120.154 189.803 120.55 187.649 120.55ZM216.284 120.55C213.597 120.55 211.283 119.976 209.342 118.828C207.412 117.668 205.921 116.04 204.867 113.945C203.826 111.838 203.305 109.37 203.305 106.541C203.305 103.748 203.826 101.286 204.867 99.1548C205.921 97.0241 207.388 95.361 209.271 94.1655C211.165 92.9699 213.378 92.3722 215.911 92.3722C217.45 92.3722 218.942 92.6267 220.386 93.1357C221.83 93.6446 223.126 94.4437 224.274 95.5327C225.422 96.6217 226.328 98.0362 226.991 99.7763C227.654 101.504 227.985 103.606 227.985 106.08V107.962H206.305V103.984H222.783C222.783 102.588 222.499 101.351 221.93 100.273C221.362 99.1844 220.563 98.3262 219.533 97.6989C218.515 97.0715 217.32 96.7578 215.947 96.7578C214.455 96.7578 213.153 97.1248 212.04 97.8587C210.94 98.5807 210.087 99.5277 209.484 100.7C208.892 101.86 208.596 103.12 208.596 104.482V107.589C208.596 109.412 208.915 110.962 209.555 112.241C210.206 113.519 211.111 114.496 212.271 115.17C213.431 115.833 214.787 116.165 216.337 116.165C217.344 116.165 218.261 116.023 219.089 115.739C219.918 115.443 220.634 115.005 221.238 114.425C221.842 113.845 222.303 113.129 222.623 112.276L227.648 113.182C227.245 114.661 226.523 115.958 225.482 117.07C224.452 118.171 223.156 119.029 221.593 119.645C220.042 120.249 218.273 120.55 216.284 120.55ZM239.184 83.6364V120H233.876V83.6364H239.184Z" fill="#3E3E3E"/>
</svg>
