<svg width="159" height="101" viewBox="0 0 159 101" fill="none" xmlns="http://www.w3.org/2000/svg">
<rect width="159" height="101" fill="black"/>
<g clip-path="url(#clip0_345_9)">
<path d="M62.3333 51.3332C67.2118 51.3332 71.1667 47.3784 71.1667 42.4998C71.1667 37.6213 67.2118 33.6665 62.3333 33.6665C57.4548 33.6665 53.5 37.6213 53.5 42.4998C53.5 47.3784 57.4548 51.3332 62.3333 51.3332Z" fill="#19BCFE"/>
<path fill-rule="evenodd" clip-rule="evenodd" d="M44.6667 69.0002C49.5452 69.0002 53.5 65.0453 53.5 60.1668C53.5 58.8351 53.5 55.8906 53.5 51.3335C49.5317 51.3335 46.5873 51.3335 44.6667 51.3335C39.7882 51.3335 35.8333 55.2883 35.8333 60.1668C35.8333 65.0453 39.7882 69.0002 44.6667 69.0002Z" fill="#09CF83"/>
<path fill-rule="evenodd" clip-rule="evenodd" d="M44.6667 51.3332C46.2928 51.3332 49.2373 51.3332 53.5 51.3332V33.6665C49.2373 33.6665 46.2928 33.6665 44.6667 33.6665C39.7882 33.6665 35.8333 37.6213 35.8333 42.4998C35.8333 47.3784 39.7882 51.3332 44.6667 51.3332Z" fill="#A259FF"/>
<path fill-rule="evenodd" clip-rule="evenodd" d="M44.6667 33.6667C46.2928 33.6667 49.2373 33.6667 53.5 33.6667V16C49.2373 16 46.2928 16 44.6667 16C39.7882 16 35.8333 19.9548 35.8333 24.8333C35.8333 29.7118 39.7882 33.6667 44.6667 33.6667Z" fill="#F24E1E"/>
<path fill-rule="evenodd" clip-rule="evenodd" d="M62.3333 33.6667H53.5V16H62.3333C67.2118 16 71.1667 19.9548 71.1667 24.8333C71.1667 29.7118 67.2118 33.6667 62.3333 33.6667Z" fill="#FF7262"/>
</g>
<path d="M79.8466 42.0909V44.0795H73.3977V42.0909H79.8466ZM75.0099 53V41.0611C75.0099 40.3272 75.1615 39.7164 75.4645 39.2287C75.7723 38.741 76.1842 38.3764 76.7003 38.1349C77.2164 37.8935 77.7893 37.7727 78.419 37.7727C78.8641 37.7727 79.2595 37.8082 79.6051 37.8793C79.9508 37.9503 80.2064 38.0142 80.3722 38.071L79.8608 40.0597C79.7519 40.0265 79.6146 39.9934 79.4489 39.9602C79.2831 39.9223 79.0985 39.9034 78.8949 39.9034C78.4167 39.9034 78.0781 40.0194 77.8793 40.2514C77.6851 40.4787 77.5881 40.8054 77.5881 41.2315V53H75.0099Z" fill="#F24E1E"/>
<path d="M81.8601 53V42.0909H84.4311V53H81.8601ZM83.1527 40.5426C82.7455 40.5426 82.3951 40.4077 82.1016 40.1378C81.808 39.8632 81.6612 39.5341 81.6612 39.1506C81.6612 38.7623 81.808 38.4332 82.1016 38.1634C82.3951 37.8887 82.7455 37.7514 83.1527 37.7514C83.5646 37.7514 83.915 37.8887 84.2038 38.1634C84.4974 38.4332 84.6442 38.7623 84.6442 39.1506C84.6442 39.5341 84.4974 39.8632 84.2038 40.1378C83.915 40.4077 83.5646 40.5426 83.1527 40.5426Z" fill="#FF7262"/>
<path d="M91.8192 57.3182C90.896 57.3182 90.1029 57.1927 89.44 56.9418C88.7771 56.6955 88.2444 56.3641 87.842 55.9474C87.4395 55.5308 87.1602 55.0691 87.0039 54.5625L89.3192 54.0014C89.4234 54.2145 89.5749 54.4252 89.7738 54.6335C89.9727 54.8466 90.2402 55.0218 90.5763 55.1591C90.9173 55.3011 91.3458 55.3722 91.8619 55.3722C92.591 55.3722 93.1947 55.1946 93.6729 54.8395C94.1512 54.4891 94.3903 53.9115 94.3903 53.1065V51.0398H94.2624C94.1299 51.3049 93.9357 51.5772 93.68 51.8565C93.4291 52.1359 93.0953 52.3703 92.6786 52.5597C92.2667 52.7491 91.7482 52.8438 91.1232 52.8438C90.2852 52.8438 89.5252 52.6473 88.8434 52.2543C88.1663 51.8565 87.6265 51.2647 87.2241 50.4787C86.8263 49.688 86.6275 48.6984 86.6275 47.5099C86.6275 46.312 86.8263 45.3011 87.2241 44.4773C87.6265 43.6487 88.1687 43.0213 88.8505 42.5952C89.5323 42.1643 90.2923 41.9489 91.1303 41.9489C91.7695 41.9489 92.2951 42.0578 92.707 42.2756C93.1237 42.4886 93.4551 42.7467 93.7013 43.0497C93.9476 43.348 94.1346 43.6297 94.2624 43.8949H94.4045V42.0909H96.94V53.1776C96.94 54.1103 96.7174 54.8821 96.2724 55.4929C95.8273 56.1037 95.2189 56.5606 94.4471 56.8636C93.6753 57.1667 92.7994 57.3182 91.8192 57.3182ZM91.8406 50.8267C92.3851 50.8267 92.8491 50.6941 93.2326 50.429C93.6161 50.1638 93.9073 49.7827 94.1062 49.2855C94.305 48.7884 94.4045 48.1918 94.4045 47.4957C94.4045 46.8092 94.305 46.2079 94.1062 45.6918C93.9121 45.1757 93.6232 44.7756 93.2397 44.4915C92.8609 44.2027 92.3945 44.0582 91.8406 44.0582C91.2676 44.0582 90.7894 44.2074 90.4059 44.5057C90.0224 44.804 89.7335 45.2135 89.5394 45.7344C89.3453 46.2505 89.2482 46.8376 89.2482 47.4957C89.2482 48.1634 89.3453 48.7481 89.5394 49.25C89.7383 49.7472 90.0295 50.1354 90.413 50.4148C90.8013 50.6894 91.2771 50.8267 91.8406 50.8267Z" fill="#A259FF"/>
<path d="M99.5749 53V42.0909H102.032V43.9446H102.16C102.387 43.3196 102.764 42.8319 103.289 42.4815C103.815 42.1264 104.442 41.9489 105.172 41.9489C105.91 41.9489 106.533 42.1288 107.039 42.4886C107.551 42.8437 107.911 43.3291 108.119 43.9446H108.233C108.474 43.3385 108.881 42.8556 109.454 42.4957C110.032 42.1312 110.716 41.9489 111.507 41.9489C112.511 41.9489 113.33 42.2661 113.964 42.9006C114.599 43.535 114.916 44.4607 114.916 45.6776V53H112.338V46.0753C112.338 45.3982 112.158 44.9034 111.798 44.5909C111.438 44.2737 110.998 44.1151 110.477 44.1151C109.857 44.1151 109.371 44.3092 109.021 44.6974C108.675 45.081 108.502 45.5805 108.502 46.196V53H105.981V45.9688C105.981 45.4053 105.811 44.9555 105.47 44.6193C105.134 44.2831 104.693 44.1151 104.149 44.1151C103.779 44.1151 103.443 44.2098 103.14 44.3991C102.837 44.5838 102.596 44.8466 102.416 45.1875C102.236 45.5237 102.146 45.9167 102.146 46.3665V53H99.5749Z" fill="#19BCFE"/>
<path d="M120.663 53.2202C119.972 53.2202 119.349 53.0971 118.795 52.8509C118.246 52.5999 117.811 52.2306 117.489 51.7429C117.171 51.2552 117.013 50.6539 117.013 49.9389C117.013 49.3234 117.126 48.8144 117.354 48.4119C117.581 48.0095 117.891 47.6875 118.284 47.446C118.677 47.2045 119.12 47.0223 119.612 46.8991C120.109 46.7713 120.623 46.679 121.153 46.6222C121.793 46.5559 122.311 46.4967 122.709 46.4446C123.107 46.3878 123.395 46.3026 123.575 46.1889C123.76 46.0705 123.852 45.8883 123.852 45.642V45.5994C123.852 45.0644 123.694 44.6501 123.376 44.3565C123.059 44.063 122.602 43.9162 122.006 43.9162C121.376 43.9162 120.876 44.0535 120.507 44.3281C120.143 44.6027 119.896 44.9271 119.768 45.3011L117.368 44.9602C117.557 44.2973 117.87 43.7434 118.305 43.2983C118.741 42.8485 119.274 42.5123 119.903 42.2898C120.533 42.0625 121.229 41.9489 121.991 41.9489C122.517 41.9489 123.04 42.0104 123.561 42.1335C124.082 42.2566 124.558 42.4602 124.989 42.7443C125.42 43.0237 125.765 43.4048 126.026 43.8878C126.291 44.3707 126.423 44.9744 126.423 45.6989V53H123.952V51.5014H123.866C123.71 51.8045 123.49 52.0885 123.206 52.3537C122.927 52.6141 122.574 52.8248 122.148 52.9858C121.726 53.142 121.232 53.2202 120.663 53.2202ZM121.331 51.331C121.847 51.331 122.295 51.2292 122.673 51.0256C123.052 50.8172 123.343 50.5426 123.547 50.2017C123.755 49.8608 123.859 49.4891 123.859 49.0866V47.8011C123.779 47.8674 123.642 47.929 123.447 47.9858C123.258 48.0426 123.045 48.0923 122.808 48.1349C122.571 48.1776 122.337 48.2154 122.105 48.2486C121.873 48.2817 121.672 48.3101 121.501 48.3338C121.118 48.3859 120.775 48.4711 120.472 48.5895C120.169 48.7079 119.929 48.8736 119.754 49.0866C119.579 49.295 119.491 49.5649 119.491 49.8963C119.491 50.3698 119.664 50.7273 120.01 50.9688C120.356 51.2102 120.796 51.331 121.331 51.331Z" fill="#09CF83"/>
<defs>
<clipPath id="clip0_345_9">
<rect width="53" height="53" fill="white" transform="translate(27 16)"/>
</clipPath>
</defs>
</svg>
