<svg width="170" height="132" viewBox="0 0 170 132" fill="none" xmlns="http://www.w3.org/2000/svg">
<rect x="9" width="161" height="132" fill="black"/>
<path d="M80.2137 30.4268L74.162 98.2213L46.9593 105.763L19.8316 98.2319L13.7863 30.4268H80.2137Z" fill="#E44D26"/>
<path d="M47 99.9982L68.9811 93.9042L74.1527 35.9707H47V99.9982Z" fill="#F16529"/>
<path d="M35.2357 52.6032H47V44.2871H26.1474L26.3464 46.5182L28.3903 69.4349H47V61.1189H35.9957L35.2357 52.6032Z" fill="#EBEBEB"/>
<path d="M37.1099 73.5928H28.7619L29.927 86.6501L46.9617 91.3791L47 91.3685V82.7163L46.9636 82.726L37.7019 80.2252L37.1099 73.5928Z" fill="#EBEBEB"/>
<path d="M46.9712 69.4346H57.2115L56.2462 80.2198L46.9712 82.7232V91.375L64.0195 86.6501L64.1446 85.2451L66.0988 63.3517L66.3017 61.1187H46.9712V69.4346Z" fill="white"/>
<path d="M46.9712 52.5829V52.6032H67.0584L67.2252 50.734L67.6041 46.5182L67.803 44.2871H46.9712V52.5829Z" fill="white"/>
<path d="M80.152 81V59.1818H84.1044V68.4183H94.2145V59.1818H98.1776V81H94.2145V71.7315H84.1044V81H80.152ZM101.517 62.495V59.1818H118.925V62.495H112.181V81H108.261V62.495H101.517ZM122.281 59.1818H127.118L133.595 74.9915H133.85L140.328 59.1818H145.164V81H141.372V66.0107H141.169L135.14 80.9361H132.306L126.276 65.9787H126.074V81H122.281V59.1818ZM149.468 81V59.1818H153.421V77.6868H163.03V81H149.468Z" fill="white"/>
</svg>
