<svg width="228" height="192" viewBox="0 0 228 192" fill="none" xmlns="http://www.w3.org/2000/svg">
<rect width="228" height="192" fill="black"/>
<path d="M68.5496 52.5767H0.153168V123.604H68.5496V52.5767Z" fill="#FFCA28"/>
<path d="M42.2433 111.368L47.0637 107.86C47.4416 109.166 49.834 112.265 52.8558 112.265C55.8776 112.265 57.2806 110.45 57.2806 109.247C57.2806 105.968 54.195 104.812 52.7129 104.257C52.4711 104.166 52.2724 104.092 52.1363 104.027C52.0664 103.993 51.9609 103.949 51.8255 103.892C50.1772 103.2 44.0959 100.645 44.0959 93.239C44.0959 85.0821 51.2547 84.144 52.8738 84.144C53.9328 84.144 59.0253 84.2867 61.5614 89.5276L56.8848 93.1168C55.8596 90.8327 54.1562 90.0783 53.1076 90.0783C50.5175 90.0783 49.9778 92.1662 49.9778 93.1168C49.9778 95.7838 52.792 96.9792 55.168 97.9884C55.7897 98.2525 56.3813 98.5037 56.8848 98.7654C59.4749 100.111 63.2883 102.314 63.2883 109.247C63.2883 112.72 60.6394 118.342 53.971 118.342C45.0133 118.342 42.6389 112.429 42.2433 111.368Z" fill="#3E3E3E"/>
<path d="M18.5676 112.414L23.5134 109.103C23.9008 110.335 25.4069 112.606 27.5918 112.606C29.7769 112.606 30.8953 110.239 30.8953 109.103V86.7749H36.9778V109.103C37.0763 112.183 35.4573 118.342 28.3115 118.342C21.7417 118.342 19.0105 114.223 18.5676 112.414Z" fill="#3E3E3E"/>
<path d="M84.7599 83.1818H88.6804V98.5227C88.6733 99.929 88.375 101.14 87.7855 102.156C87.196 103.164 86.3722 103.942 85.3139 104.489C84.2628 105.028 83.0376 105.298 81.6385 105.298C80.3601 105.298 79.2095 105.071 78.1868 104.616C77.1712 104.155 76.3651 103.473 75.7685 102.571C75.1719 101.669 74.8736 100.547 74.8736 99.2045H78.8047C78.8118 99.794 78.9396 100.302 79.1882 100.728C79.4439 101.154 79.7955 101.481 80.2429 101.708C80.6903 101.935 81.2053 102.049 81.7876 102.049C82.4197 102.049 82.956 101.918 83.3963 101.655C83.8366 101.385 84.1705 100.987 84.3977 100.462C84.6321 99.9361 84.7528 99.2898 84.7599 98.5227V83.1818ZM97.5067 105.33C96.4698 105.33 95.5359 105.146 94.7049 104.776C93.881 104.4 93.2276 103.846 92.7447 103.114C92.2688 102.383 92.0309 101.481 92.0309 100.408C92.0309 99.4851 92.2013 98.7216 92.5423 98.1179C92.8832 97.5142 93.3484 97.0312 93.9379 96.669C94.5273 96.3068 95.1914 96.0334 95.93 95.8487C96.6758 95.657 97.4464 95.5185 98.2418 95.4332C99.2006 95.3338 99.9783 95.245 100.575 95.1669C101.172 95.0817 101.605 94.9538 101.875 94.7834C102.152 94.6058 102.29 94.3324 102.29 93.9631V93.8991C102.29 93.0966 102.052 92.4751 101.576 92.0348C101.1 91.5945 100.415 91.3743 99.5202 91.3743C98.5756 91.3743 97.8263 91.5803 97.2724 91.9922C96.7255 92.4041 96.3562 92.8906 96.1644 93.4517L92.5636 92.9403C92.8477 91.946 93.3164 91.1151 93.9698 90.4474C94.6232 89.7727 95.4222 89.2685 96.3668 88.9347C97.3114 88.5938 98.3555 88.4233 99.4989 88.4233C100.287 88.4233 101.072 88.5156 101.853 88.7003C102.635 88.8849 103.348 89.1903 103.995 89.6165C104.641 90.0355 105.159 90.6072 105.55 91.3317C105.948 92.0561 106.147 92.9616 106.147 94.0483V105H102.439V102.752H102.311C102.077 103.207 101.747 103.633 101.321 104.031C100.902 104.421 100.373 104.737 99.7333 104.979C99.1012 105.213 98.359 105.33 97.5067 105.33ZM98.5082 102.496C99.2823 102.496 99.9535 102.344 100.522 102.038C101.09 101.726 101.527 101.314 101.832 100.803C102.145 100.291 102.301 99.7337 102.301 99.13V97.2017C102.18 97.3011 101.974 97.3935 101.683 97.4787C101.399 97.5639 101.079 97.6385 100.724 97.7024C100.369 97.7663 100.017 97.8232 99.6694 97.8729C99.3214 97.9226 99.0195 97.9652 98.7638 98.0007C98.1886 98.0788 97.6737 98.2067 97.2191 98.3842C96.7646 98.5618 96.4059 98.8104 96.1431 99.13C95.8803 99.4425 95.7489 99.8473 95.7489 100.344C95.7489 101.055 96.0082 101.591 96.5266 101.953C97.0451 102.315 97.7056 102.496 98.5082 102.496ZM124.055 88.6364L118.228 105H113.966L108.139 88.6364H112.251L116.012 100.792H116.182L119.953 88.6364H124.055ZM130.964 105.33C129.927 105.33 128.993 105.146 128.162 104.776C127.338 104.4 126.685 103.846 126.202 103.114C125.726 102.383 125.488 101.481 125.488 100.408C125.488 99.4851 125.658 98.7216 125.999 98.1179C126.34 97.5142 126.805 97.0312 127.395 96.669C127.984 96.3068 128.648 96.0334 129.387 95.8487C130.133 95.657 130.903 95.5185 131.699 95.4332C132.658 95.3338 133.435 95.245 134.032 95.1669C134.629 95.0817 135.062 94.9538 135.332 94.7834C135.609 94.6058 135.747 94.3324 135.747 93.9631V93.8991C135.747 93.0966 135.509 92.4751 135.033 92.0348C134.558 91.5945 133.872 91.3743 132.977 91.3743C132.033 91.3743 131.283 91.5803 130.729 91.9922C130.183 92.4041 129.813 92.8906 129.621 93.4517L126.021 92.9403C126.305 91.946 126.773 91.1151 127.427 90.4474C128.08 89.7727 128.879 89.2685 129.824 88.9347C130.768 88.5938 131.813 88.4233 132.956 88.4233C133.744 88.4233 134.529 88.5156 135.31 88.7003C136.092 88.8849 136.805 89.1903 137.452 89.6165C138.098 90.0355 138.616 90.6072 139.007 91.3317C139.405 92.0561 139.604 92.9616 139.604 94.0483V105H135.896V102.752H135.768C135.534 103.207 135.204 103.633 134.778 104.031C134.359 104.421 133.83 104.737 133.19 104.979C132.558 105.213 131.816 105.33 130.964 105.33ZM131.965 102.496C132.739 102.496 133.411 102.344 133.979 102.038C134.547 101.726 134.984 101.314 135.289 100.803C135.602 100.291 135.758 99.7337 135.758 99.13V97.2017C135.637 97.3011 135.431 97.3935 135.14 97.4787C134.856 97.5639 134.536 97.6385 134.181 97.7024C133.826 97.7663 133.474 97.8232 133.126 97.8729C132.778 97.9226 132.477 97.9652 132.221 98.0007C131.646 98.0788 131.131 98.2067 130.676 98.3842C130.222 98.5618 129.863 98.8104 129.6 99.13C129.337 99.4425 129.206 99.8473 129.206 100.344C129.206 101.055 129.465 101.591 129.984 101.953C130.502 102.315 131.163 102.496 131.965 102.496ZM156.415 92.9616L152.899 93.3452C152.8 92.9901 152.626 92.6562 152.377 92.3438C152.136 92.0312 151.809 91.7791 151.397 91.5874C150.985 91.3956 150.481 91.2997 149.884 91.2997C149.082 91.2997 148.407 91.4737 147.86 91.8217C147.32 92.1697 147.054 92.6207 147.061 93.1747C147.054 93.6506 147.228 94.0376 147.583 94.3359C147.945 94.6342 148.542 94.8793 149.373 95.071L152.164 95.6676C153.712 96.0014 154.863 96.5305 155.616 97.255C156.376 97.9794 156.759 98.9276 156.766 100.099C156.759 101.129 156.457 102.038 155.861 102.827C155.271 103.608 154.451 104.219 153.4 104.659C152.349 105.099 151.141 105.32 149.778 105.32C147.775 105.32 146.163 104.901 144.941 104.062C143.719 103.217 142.991 102.042 142.757 100.536L146.518 100.174C146.688 100.913 147.05 101.47 147.604 101.847C148.158 102.223 148.879 102.411 149.767 102.411C150.683 102.411 151.418 102.223 151.972 101.847C152.533 101.47 152.814 101.005 152.814 100.451C152.814 99.9822 152.633 99.5952 152.271 99.2898C151.915 98.9844 151.362 98.75 150.609 98.5866L147.817 98.0007C146.248 97.674 145.087 97.1236 144.334 96.3494C143.581 95.5682 143.208 94.581 143.215 93.3878C143.208 92.3793 143.482 91.5057 144.036 90.767C144.597 90.0213 145.374 89.446 146.369 89.0412C147.37 88.6293 148.524 88.4233 149.831 88.4233C151.749 88.4233 153.258 88.8317 154.359 89.6484C155.467 90.4652 156.152 91.5696 156.415 92.9616ZM167.084 105.32C165.451 105.32 164.048 104.961 162.876 104.244C161.711 103.526 160.813 102.536 160.181 101.271C159.556 100 159.243 98.5369 159.243 96.8821C159.243 95.2202 159.563 93.7536 160.202 92.4822C160.841 91.2038 161.743 90.2095 162.908 89.4993C164.08 88.782 165.465 88.4233 167.063 88.4233C168.391 88.4233 169.566 88.6683 170.589 89.1584C171.619 89.6413 172.439 90.3267 173.05 91.2145C173.661 92.0952 174.009 93.125 174.094 94.304H170.408C170.259 93.5156 169.904 92.8587 169.343 92.3331C168.789 91.8004 168.047 91.5341 167.116 91.5341C166.328 91.5341 165.635 91.7472 165.039 92.1733C164.442 92.5923 163.977 93.196 163.643 93.9844C163.316 94.7727 163.153 95.7173 163.153 96.8182C163.153 97.9332 163.316 98.892 163.643 99.6946C163.97 100.49 164.428 101.104 165.017 101.538C165.614 101.964 166.314 102.177 167.116 102.177C167.684 102.177 168.192 102.07 168.64 101.857C169.094 101.637 169.474 101.321 169.779 100.909C170.085 100.497 170.294 99.9964 170.408 99.407H174.094C174.002 100.565 173.661 101.591 173.071 102.486C172.482 103.374 171.679 104.07 170.664 104.574C169.648 105.071 168.455 105.32 167.084 105.32ZM177.261 105V88.6364H181V91.3636H181.171C181.469 90.419 181.98 89.6911 182.705 89.1797C183.436 88.6612 184.271 88.402 185.208 88.402C185.421 88.402 185.659 88.4126 185.922 88.4339C186.192 88.4482 186.416 88.473 186.593 88.5085V92.0561C186.43 91.9993 186.171 91.9496 185.816 91.907C185.468 91.8572 185.13 91.8324 184.803 91.8324C184.1 91.8324 183.468 91.9851 182.907 92.2905C182.353 92.5888 181.916 93.0043 181.597 93.5369C181.277 94.0696 181.117 94.6839 181.117 95.38V105H177.261ZM189.155 105V88.6364H193.012V105H189.155ZM191.094 86.3139C190.483 86.3139 189.958 86.1115 189.518 85.7067C189.077 85.2947 188.857 84.8011 188.857 84.2259C188.857 83.6435 189.077 83.1499 189.518 82.745C189.958 82.3331 190.483 82.1271 191.094 82.1271C191.712 82.1271 192.238 82.3331 192.671 82.745C193.111 83.1499 193.331 83.6435 193.331 84.2259C193.331 84.8011 193.111 85.2947 192.671 85.7067C192.238 86.1115 191.712 86.3139 191.094 86.3139ZM196.978 111.136V88.6364H200.77V91.3423H200.994C201.193 90.9446 201.473 90.522 201.836 90.0746C202.198 89.62 202.688 89.233 203.306 88.9134C203.924 88.5866 204.712 88.4233 205.671 88.4233C206.935 88.4233 208.075 88.7464 209.091 89.3928C210.113 90.032 210.923 90.9801 211.52 92.2372C212.123 93.4872 212.425 95.0213 212.425 96.8395C212.425 98.6364 212.13 100.163 211.541 101.42C210.951 102.678 210.149 103.636 209.133 104.297C208.118 104.957 206.967 105.288 205.681 105.288C204.744 105.288 203.966 105.131 203.348 104.819C202.73 104.506 202.233 104.13 201.857 103.69C201.488 103.242 201.2 102.82 200.994 102.422H200.834V111.136H196.978ZM200.76 96.8182C200.76 97.8764 200.909 98.8033 201.207 99.5987C201.512 100.394 201.949 101.016 202.517 101.463C203.093 101.903 203.789 102.124 204.605 102.124C205.458 102.124 206.172 101.896 206.747 101.442C207.322 100.98 207.755 100.352 208.047 99.5561C208.345 98.7536 208.494 97.8409 208.494 96.8182C208.494 95.8026 208.348 94.9006 208.057 94.1122C207.766 93.3239 207.333 92.706 206.757 92.2585C206.182 91.8111 205.465 91.5874 204.605 91.5874C203.782 91.5874 203.082 91.804 202.507 92.2372C201.931 92.6705 201.495 93.2777 201.196 94.0589C200.905 94.8402 200.76 95.7599 200.76 96.8182ZM223.899 88.6364V91.6193H214.492V88.6364H223.899ZM216.814 84.7159H220.671V100.078C220.671 100.597 220.749 100.994 220.905 101.271C221.069 101.541 221.282 101.726 221.544 101.825C221.807 101.925 222.098 101.974 222.418 101.974C222.659 101.974 222.88 101.957 223.078 101.921C223.284 101.886 223.441 101.854 223.547 101.825L224.197 104.84C223.991 104.911 223.696 104.989 223.313 105.075C222.936 105.16 222.475 105.21 221.928 105.224C220.962 105.252 220.092 105.107 219.318 104.787C218.544 104.46 217.929 103.956 217.475 103.274C217.027 102.592 216.807 101.74 216.814 100.717V84.7159Z" fill="#3E3E3E"/>
</svg>
