<svg width="86" height="86" viewBox="0 0 86 86" fill="none" xmlns="http://www.w3.org/2000/svg">
<path d="M14 42C14 40.8955 13.1046 40 12 40C10.8955 40 10 40.8955 10 42C10 43.1046 10.8955 44 12 44C13.1046 44 14 43.1046 14 42Z" fill="#53C1DE"/>
<path fill-rule="evenodd" clip-rule="evenodd" d="M17.8003 38.9585C18.1774 37.3296 18.6515 34.3092 16.9803 33.2851C15.3169 32.2655 13.1523 34.2192 12.0093 35.3919C10.8696 34.2309 8.6442 32.2856 6.97442 33.3129C5.31167 34.3359 5.82443 37.3063 6.20993 38.9453C4.65887 39.4135 2 40.422 2 42.4824C2 44.5369 4.65611 45.6341 6.19799 46.1019C5.81105 47.75 5.32397 50.678 6.98885 51.6987C8.66487 52.7258 10.8833 50.8267 12.0369 49.6412C13.1873 50.8208 15.3311 52.7323 16.9948 51.7087C18.6637 50.6819 18.2291 47.7019 17.8435 46.0534C19.3382 45.5846 22 44.5113 22 42.4824C22 40.4418 19.3269 39.4251 17.8003 38.9585ZM17.6108 45.1797C17.3577 44.3281 17.016 43.4224 16.5981 42.4869C16.997 41.5735 17.3254 40.6795 17.5715 39.8333C18.6906 40.1782 21.1457 40.9663 21.1457 42.4824C21.1457 44.0127 18.7897 44.8083 17.6108 45.1797ZM16.5667 50.9228C15.3253 51.6865 13.4814 49.8586 12.6319 48.9899C13.1955 48.3348 13.7587 47.5731 14.3083 46.7274C15.2753 46.6363 16.1887 46.4872 17.0171 46.2837C17.2884 47.4498 17.8135 50.1558 16.5667 50.9228ZM7.41575 50.912C6.17429 50.1512 6.74172 47.5384 7.02638 46.3243C7.84556 46.517 8.7524 46.6555 9.7216 46.739C10.2749 47.5666 10.8544 48.3272 11.4384 48.9934C10.7169 49.7352 8.663 51.6763 7.41575 50.912ZM2.85433 42.4824C2.85433 40.9464 5.29471 40.1639 6.43936 39.82C6.68967 40.6851 7.01797 41.5898 7.41415 42.5045C7.01283 43.4329 6.67985 44.3518 6.42723 45.2272C5.33579 44.8952 2.85433 44.0193 2.85433 42.4824ZM7.40247 34.0987C8.649 33.3319 10.5831 35.1995 11.4106 36.0401C10.8296 36.7032 10.2554 37.4581 9.70687 38.2809C8.76627 38.3736 7.86583 38.5223 7.03806 38.7217C6.7275 37.3997 6.15728 34.8648 7.40247 34.0987ZM14.9195 39.2679C15.5577 39.3535 16.1691 39.4673 16.7431 39.6066C16.5708 40.1937 16.356 40.8076 16.103 41.4369C15.7363 40.6974 15.3426 39.9727 14.9195 39.2679ZM12.0095 36.689C12.4036 37.1427 12.7983 37.6494 13.1865 38.1991C12.399 38.1594 11.6102 38.1593 10.8227 38.1985C11.2113 37.6539 11.6093 37.148 12.0095 36.689ZM7.90433 41.4363C7.65553 40.8091 7.44265 40.1925 7.26881 39.597C7.83945 39.4613 8.448 39.3504 9.082 39.2662C8.65773 39.9695 8.26473 40.6939 7.90433 41.4363ZM9.1002 45.7634C8.44527 45.6857 7.82751 45.5804 7.25704 45.4484C7.43363 44.8425 7.65119 44.2126 7.90531 43.5719C8.27067 44.322 8.66967 45.0535 9.1002 45.7634ZM12.0332 48.3399C11.6283 47.8755 11.2243 47.3619 10.8299 46.8094C11.6219 46.8424 12.4154 46.8425 13.2073 46.805C12.8179 47.3675 12.4246 47.8819 12.0332 48.3399ZM16.1111 43.5393C16.3785 44.1869 16.6038 44.8134 16.7828 45.4091C16.2029 45.5498 15.5768 45.6631 14.9171 45.7472C15.3433 45.029 15.7433 44.293 16.1111 43.5393ZM13.8315 45.8572C12.6201 45.9492 11.4011 45.9482 10.1892 45.8648C9.5006 44.7957 8.8876 43.6714 8.35847 42.5042C8.88507 41.3395 9.4936 40.2174 10.1789 39.15C11.3917 39.0526 12.6119 39.0523 13.8246 39.1506C14.5041 40.2179 15.1117 41.3371 15.6505 42.4913C15.1181 43.6555 14.5063 44.7799 13.8315 45.8572ZM16.5535 34.0717C17.8004 34.8361 17.2454 37.5507 16.973 38.7311C16.1433 38.5276 15.2422 38.3762 14.2989 38.2821C13.7493 37.4504 13.1799 36.6942 12.6083 36.0396C13.4463 35.1809 15.3187 33.3149 16.5535 34.0717Z" fill="#53C1DE"/>
<path d="M28.4276 49V38.0909H30.4801V39.8239H30.5938C30.7926 39.2367 31.143 38.7751 31.6449 38.4389C32.1515 38.098 32.7244 37.9276 33.3636 37.9276C33.4962 37.9276 33.6525 37.9323 33.8324 37.9418C34.017 37.9512 34.1615 37.9631 34.2656 37.9773V40.0085C34.1804 39.9848 34.0289 39.9588 33.8111 39.9304C33.5933 39.8973 33.3755 39.8807 33.1577 39.8807C32.6558 39.8807 32.2083 39.9872 31.8153 40.2003C31.4271 40.4086 31.1193 40.6998 30.892 41.0739C30.6648 41.4432 30.5511 41.8646 30.5511 42.3381V49H28.4276ZM40.4144 49.2202C39.3396 49.2202 38.4139 48.9905 37.6374 48.5312C36.8656 48.0672 36.2691 47.4162 35.8477 46.5781C35.431 45.7353 35.2227 44.7481 35.2227 43.6165C35.2227 42.4991 35.431 41.5142 35.8477 40.6619C36.2691 39.8097 36.8562 39.1444 37.609 38.6662C38.3666 38.188 39.252 37.9489 40.2653 37.9489C40.8808 37.9489 41.4774 38.0507 42.055 38.2543C42.6327 38.4579 43.1512 38.7775 43.6104 39.2131C44.0697 39.6487 44.4319 40.2145 44.6971 40.9105C44.9622 41.6018 45.0948 42.4422 45.0948 43.4318V44.1847H36.4229V42.5938H43.0138C43.0138 42.035 42.9002 41.5402 42.6729 41.1094C42.4457 40.6738 42.1261 40.3305 41.7141 40.0795C41.3069 39.8286 40.8287 39.7031 40.2795 39.7031C39.6829 39.7031 39.1621 39.8499 38.717 40.1435C38.2766 40.4323 37.9357 40.8111 37.6942 41.2798C37.4575 41.7438 37.3391 42.2481 37.3391 42.7926V44.0355C37.3391 44.7647 37.467 45.3849 37.7227 45.8963C37.9831 46.4077 38.3453 46.7983 38.8093 47.0682C39.2733 47.3333 39.8155 47.4659 40.4357 47.4659C40.8382 47.4659 41.2051 47.4091 41.5366 47.2955C41.868 47.1771 42.1545 47.0019 42.396 46.7699C42.6374 46.5379 42.8221 46.2514 42.9499 45.9105L44.9599 46.2727C44.7989 46.8646 44.5101 47.383 44.0934 47.8281C43.6815 48.2685 43.163 48.6117 42.538 48.858C41.9177 49.0994 41.2099 49.2202 40.4144 49.2202ZM50.6257 49.2415C49.9344 49.2415 49.3094 49.1136 48.7507 48.858C48.192 48.5975 47.7493 48.2211 47.4226 47.7287C47.1006 47.2363 46.9396 46.6326 46.9396 45.9176C46.9396 45.3021 47.058 44.7955 47.2947 44.3977C47.5315 44 47.8511 43.6851 48.2536 43.4531C48.656 43.2211 49.1058 43.0459 49.603 42.9276C50.1001 42.8092 50.6068 42.7192 51.1229 42.6577C51.7763 42.5819 52.3066 42.5204 52.7138 42.473C53.121 42.4209 53.4169 42.3381 53.6016 42.2244C53.7862 42.1108 53.8786 41.9261 53.8786 41.6705V41.6207C53.8786 41.0005 53.7034 40.5199 53.353 40.179C53.0073 39.8381 52.4912 39.6676 51.8047 39.6676C51.0897 39.6676 50.5263 39.8262 50.1143 40.1435C49.7071 40.456 49.4254 40.804 49.2692 41.1875L47.2734 40.733C47.5102 40.0701 47.8558 39.535 48.3104 39.1278C48.7696 38.7159 49.2976 38.4176 49.8942 38.233C50.4908 38.0436 51.1181 37.9489 51.7763 37.9489C52.2119 37.9489 52.6735 38.0009 53.1612 38.1051C53.6536 38.2045 54.1129 38.3892 54.5391 38.6591C54.9699 38.929 55.3227 39.3149 55.5973 39.8168C55.8719 40.3139 56.0092 40.9602 56.0092 41.7557V49H53.9354V47.5085H53.8501C53.7128 47.7831 53.5069 48.053 53.2322 48.3182C52.9576 48.5833 52.6049 48.8035 52.174 48.9787C51.7431 49.1539 51.227 49.2415 50.6257 49.2415ZM51.0874 47.5369C51.6745 47.5369 52.1764 47.4209 52.593 47.1889C53.0144 46.9569 53.334 46.6539 53.5518 46.2798C53.7744 45.901 53.8857 45.4962 53.8857 45.0653V43.6591C53.8099 43.7348 53.6631 43.8059 53.4453 43.8722C53.2322 43.9337 52.9884 43.9882 52.7138 44.0355C52.4392 44.0781 52.1716 44.1184 51.9112 44.1562C51.6508 44.1894 51.433 44.2178 51.2578 44.2415C50.8459 44.2936 50.4695 44.3812 50.1286 44.5043C49.7924 44.6274 49.5225 44.8049 49.3189 45.0369C49.12 45.2642 49.0206 45.5672 49.0206 45.946C49.0206 46.4716 49.2147 46.8693 49.603 47.1392C49.9912 47.4044 50.486 47.5369 51.0874 47.5369ZM63.4329 49.2202C62.377 49.2202 61.4679 48.9811 60.7056 48.5028C59.948 48.0199 59.3656 47.3546 58.9585 46.5071C58.5513 45.6596 58.3477 44.6889 58.3477 43.5952C58.3477 42.4872 58.556 41.5095 58.9727 40.6619C59.3893 39.8097 59.9764 39.1444 60.734 38.6662C61.4916 38.188 62.3841 37.9489 63.4116 37.9489C64.2402 37.9489 64.9788 38.1027 65.6275 38.4105C66.2762 38.7135 66.7994 39.1397 67.1971 39.6889C67.5996 40.2382 67.8387 40.8797 67.9144 41.6136H65.8477C65.734 41.1023 65.4736 40.6619 65.0664 40.2926C64.6639 39.9233 64.1242 39.7386 63.4471 39.7386C62.8552 39.7386 62.3368 39.8949 61.8917 40.2074C61.4513 40.5152 61.1081 40.9555 60.8619 41.5284C60.6156 42.0966 60.4925 42.7689 60.4925 43.5455C60.4925 44.3409 60.6133 45.0275 60.8548 45.6051C61.0962 46.1828 61.4371 46.6302 61.8775 46.9474C62.3226 47.2647 62.8458 47.4233 63.4471 47.4233C63.8496 47.4233 64.2141 47.3499 64.5408 47.2031C64.8723 47.0516 65.1493 46.8362 65.3718 46.5568C65.5991 46.2775 65.7577 45.9413 65.8477 45.5483H67.9144C67.8387 46.2538 67.609 46.8835 67.2255 47.4375C66.842 47.9915 66.3282 48.4271 65.6843 48.7443C65.0451 49.0616 64.2946 49.2202 63.4329 49.2202ZM75.2777 38.0909V39.7955H69.3189V38.0909H75.2777ZM70.9169 35.4773H73.0405V45.7969C73.0405 46.2088 73.102 46.5189 73.2251 46.7273C73.3482 46.9309 73.5069 47.0705 73.701 47.1463C73.8999 47.2173 74.1153 47.2528 74.3473 47.2528C74.5178 47.2528 74.6669 47.241 74.7947 47.2173C74.9226 47.1937 75.022 47.1747 75.093 47.1605L75.4766 48.9148C75.3535 48.9621 75.1783 49.0095 74.951 49.0568C74.7237 49.1089 74.4396 49.1373 74.0987 49.142C73.54 49.1515 73.0192 49.0521 72.5362 48.8438C72.0533 48.6354 71.6626 48.3134 71.3643 47.8778C71.0661 47.4422 70.9169 46.8954 70.9169 46.2372V35.4773Z" fill="#53C1DE"/>
</svg>
