<svg width="162" height="161" viewBox="0 0 162 161" fill="none" xmlns="http://www.w3.org/2000/svg">
<path d="M44.7293 29.2651L29.4469 44.4532L35.1844 50.1448L42.8203 42.556L46.6383 46.3504L39.0024 53.9392L46.6383 61.528L54.2742 53.9392L58.0922 57.7336L50.4563 65.3224L58.0922 72.9112L73.3641 57.7336L44.7293 29.2651ZM114.929 31.6026L100.533 45.9102L115.805 61.0878L130.201 46.7802C128.132 43.8894 125.86 41.1028 123.251 38.5101C120.642 35.9174 117.838 33.6587 114.929 31.6026ZM92.8969 53.499L35.6168 110.425L31.7989 129.397L50.8887 125.603L108.169 68.6766L92.8969 53.499ZM103.908 88.0888L88.636 103.266L96.2719 110.855L103.908 103.266L107.726 107.061L100.09 114.65L107.726 122.238L115.362 114.65L119.18 118.444L111.544 126.033L117.271 131.735L132.553 116.547L103.908 88.0888Z" fill="white"/>
</svg>
