<svg width="161" height="161" viewBox="0 0 161 161" fill="none" xmlns="http://www.w3.org/2000/svg">
<path d="M108.461 135.096C107.627 134.589 106.9 133.908 106.322 133.083C106.055 132.703 105.83 132.301 105.643 131.885H10.8432V38.4455H139.52V99.4584C142.267 99.7064 144.572 101.511 145.54 103.981C146.397 103.512 147.352 103.221 148.356 103.133C149.035 103.074 149.709 103.116 150.363 103.245V15.1676C150.363 10.1849 146.31 6.13129 141.328 6.13129H9.03588C4.05365 6.13129 0 10.1849 0 15.1676V133.693C0 138.676 4.05365 142.729 9.03588 142.729H107.637C106.868 141.171 106.685 139.412 107.138 137.719C107.399 136.746 107.851 135.858 108.461 135.096ZM129.598 21.305C129.598 19.4624 131.091 17.9683 132.934 17.9683H136.27C138.113 17.9683 139.606 19.462 139.606 21.305V25.0864C139.606 26.929 138.113 28.4227 136.27 28.4227H132.934C131.091 28.4227 129.598 26.929 129.598 25.0864V21.305ZM114.083 21.305C114.083 19.4624 115.577 17.9683 117.42 17.9683H120.756C122.599 17.9683 124.093 19.462 124.093 21.305V25.0864C124.093 26.929 122.599 28.4227 120.756 28.4227H117.42C115.577 28.4227 114.083 26.929 114.083 25.0864V21.305ZM98.5689 21.305C98.5689 19.4624 100.063 17.9683 101.905 17.9683H105.242C107.084 17.9683 108.578 19.462 108.578 21.305V25.0864C108.578 26.929 107.084 28.4227 105.242 28.4227H101.905C100.063 28.4227 98.5689 26.929 98.5689 25.0864V21.305Z" fill="white"/>
<path d="M160.978 128.733L159.976 123.047C159.841 122.282 159.111 121.77 158.345 121.905L153.288 122.796C152.681 121.372 151.906 120.038 150.986 118.816L154.289 114.88C154.529 114.594 154.646 114.225 154.613 113.852C154.58 113.48 154.401 113.136 154.115 112.896L149.693 109.185C149.407 108.945 149.036 108.828 148.664 108.861C148.292 108.893 147.948 109.072 147.708 109.358L144.409 113.292C143.054 112.602 141.605 112.07 140.088 111.719V106.584C140.088 105.807 139.457 105.176 138.679 105.176H132.905C132.128 105.176 131.497 105.807 131.497 106.584V111.719C129.979 112.069 128.531 112.602 127.176 113.292L123.876 109.359C123.376 108.763 122.488 108.686 121.892 109.185L117.469 112.896C117.183 113.136 117.004 113.48 116.971 113.852C116.939 114.225 117.055 114.595 117.295 114.881L120.598 118.817C119.68 120.038 118.903 121.373 118.296 122.797L113.24 121.905C112.475 121.771 111.744 122.282 111.609 123.047L110.606 128.733C110.542 129.101 110.625 129.479 110.839 129.785C111.054 130.091 111.38 130.3 111.748 130.364L116.808 131.256C116.89 132.824 117.163 134.341 117.603 135.785L113.155 138.352C112.832 138.538 112.596 138.846 112.499 139.206C112.402 139.567 112.453 139.951 112.639 140.275L115.526 145.275C115.712 145.598 116.02 145.834 116.381 145.931C116.501 145.963 116.623 145.979 116.745 145.979C116.99 145.979 117.233 145.915 117.449 145.79L121.9 143.22C122.947 144.341 124.128 145.335 125.42 146.176L123.662 151.004C123.535 151.355 123.551 151.742 123.709 152.081C123.867 152.419 124.153 152.681 124.504 152.808L129.928 154.782C130.084 154.839 130.247 154.868 130.41 154.868C130.613 154.868 130.817 154.824 131.006 154.736C131.344 154.579 131.605 154.293 131.733 153.941L133.49 149.113C134.243 149.204 135.01 149.252 135.788 149.252C136.566 149.252 137.333 149.204 138.086 149.113L139.844 153.941C139.971 154.293 140.233 154.579 140.571 154.736C140.759 154.824 140.962 154.868 141.167 154.868C141.329 154.868 141.493 154.84 141.648 154.782L147.073 152.808C147.423 152.681 147.71 152.418 147.867 152.081C148.025 151.742 148.042 151.355 147.914 151.004L146.157 146.176C147.447 145.336 148.629 144.341 149.676 143.221L154.127 145.791C154.343 145.915 154.586 145.979 154.831 145.979C154.953 145.979 155.076 145.963 155.196 145.931C155.556 145.835 155.864 145.598 156.05 145.275L158.937 140.275C159.123 139.952 159.174 139.567 159.078 139.206C158.981 138.847 158.745 138.538 158.421 138.352L153.975 135.786C154.414 134.341 154.686 132.824 154.769 131.257L159.829 130.365C160.197 130.3 160.523 130.092 160.737 129.785C160.959 129.479 161.043 129.101 160.978 128.733ZM135.793 137.768C131.516 137.768 128.048 134.3 128.048 130.023C128.048 125.746 131.516 122.279 135.793 122.279C140.07 122.279 143.538 125.746 143.538 130.023C143.538 134.3 140.07 137.768 135.793 137.768Z" fill="white"/>
<path d="M63.1434 90.2411C63.1434 88.4193 62.0756 86.7457 60.4228 85.9782L45.2959 78.9497L60.4232 71.9206C62.0756 71.1522 63.1434 69.4791 63.1434 67.658V67.5357C63.1434 65.9216 62.331 64.4397 60.9715 63.5736C60.2192 63.0932 59.3432 62.8391 58.4387 62.8391C57.7571 62.8391 57.0727 62.989 56.4604 63.2734L32.2765 74.5196C30.6245 75.2879 29.5575 76.9611 29.5575 78.7818V79.1181C29.5575 80.9365 30.6241 82.6085 32.2769 83.3807L56.4631 94.628C57.0884 94.9174 57.7544 95.0643 58.4422 95.0643C59.3386 95.0643 60.2119 94.8097 60.9715 94.3266C62.3317 93.4571 63.1438 91.9764 63.1438 90.3642L63.1434 90.2411Z" fill="white"/>
<path d="M87.0048 51.3797C86.1226 50.172 84.7036 49.4512 83.2088 49.4512H83.0884C81.0357 49.4512 79.236 50.7644 78.6107 52.7162L62.6767 102.087C62.2232 103.512 62.4785 105.082 63.3596 106.29C64.2418 107.497 65.6607 108.218 67.1556 108.218H67.2764C69.3283 108.218 71.1268 106.904 71.7514 104.953L87.6834 55.586C88.1412 54.1616 87.8874 52.5893 87.0048 51.3797Z" fill="white"/>
<path d="M118.086 74.5192L93.9022 63.273C93.2918 62.9893 92.6086 62.8394 91.9269 62.8394C91.0229 62.8394 90.1464 63.0928 89.3946 63.5725C88.0327 64.4401 87.2203 65.9215 87.2203 67.5356V67.6579C87.2203 69.4775 88.2873 71.1511 89.9413 71.9225L105.068 78.9501L89.9409 85.9782C88.2881 86.7457 87.2203 88.4192 87.2203 90.2411V90.3642C87.2203 91.9764 88.0328 93.4567 89.3938 94.327C90.1506 94.8093 91.0248 95.0643 91.9223 95.0643C92.6094 95.0643 93.2745 94.9174 93.9041 94.6268L118.089 83.3795C119.741 82.6092 120.807 80.9369 120.807 79.1184V78.7822C120.806 76.9611 119.739 75.2879 118.086 74.5192Z" fill="white"/>
</svg>
